PathFileType   4   (X/Y/Z)
DataRate	CameraRate	NumFrames	NumMarkers	Units	OrigDataRate	OrigDataStartFrame	OrigNumFrames
120.0	120.0	9	37	mm	120.0	1	194
Frame#	Time	midhip	hip_r	hip_l	knee_r	knee_l	ankle_r	ankle_l	midasis	asis_r	asis_l	psis_r	psis_l	epicondLat_r	epicondLat_l	epicondMed_r	epicondMed_l	malleolusLat_r	malleolusLat_l	malleolusMedv_r	malleolusMedv_l	neck	subclavicle_r	subclavicle_l	sternalnotch	xyphoidprocess	thighwand_r	thighwand_l	upperleg1_r	upperleg1_l	upperleg2_r	upperleg2_l	shankwand_r	shankwand_l	lowerleg1_r	lowerleg1_l	toe_r	toe_l
 	 	X1	Y1	Z1	X2	Y2	Z2	X3	Y3	Z3	X4	Y4	Z4	X5	Y5	Z5	X6	Y6	Z6	X7	Y7	Z7	X8	Y8	Z8	X9	Y9	Z9	X10	Y10	Z10	X11	Y11	Z11	X12	Y12	Z12	X13	Y13	Z13	X14	Y14	Z14	X15	Y15	Z15	X16	Y16	Z16	X17	Y17	Z17	X18	Y18	Z18	X19	Y19	Z19	X20	Y20	Z20	X21	Y21	Z21	X22	Y22	Z22	X23	Y23	Z23	X24	Y24	Z24	X25	Y25	Z25	X26	Y26	Z26	X27	Y27	Z27	X28	Y28	Z28	X29	Y29	Z29	X30	Y30	Z30	X31	Y31	Z31	X32	Y32	Z32	X33	Y33	Z33	X34	Y34	Z34	X35	Y35	Z35	X36	Y36	Z36	X37	Y37	Z37

	1	0.35000	748.786	691.790	-192.459	742.848	699.956	-128.029	737.413	698.354	-253.730	807.152	389.167	-162.973	660.786	395.364	-258.719	811.798	55.962	-170.104	446.895	147.188	-257.353	805.961	762.420	-194.533	810.117	763.645	-98.423	801.805	761.194	-290.642	662.877	800.829	-163.047	657.209	797.650	-217.638	808.963	383.899	-112.781	646.975	399.645	-306.583	798.745	385.255	-213.596	680.297	385.636	-205.352	810.205	55.224	-136.650	437.932	154.734	-289.803	804.202	68.362	-195.185	448.227	156.942	-229.030	719.671	1150.266	-200.631	797.959	1097.888	-137.166	789.334	1096.385	-266.977	786.859	1086.223	-204.130	791.934	942.392	-201.994	795.163	460.159	-25.825	805.190	469.745	-328.592	817.333	530.940	-85.791	771.415	532.518	-253.405	838.648	452.419	-110.997	739.402	450.974	-244.491	804.537	156.169	-58.719	569.629	172.894	-311.752	802.599	213.924	-116.221	565.405	252.422	-282.702	905.919	38.269	-186.726	475.172	56.641	-254.434
	2	0.35833	754.024	692.177	-192.119	747.844	700.139	-127.680	742.839	698.817	-253.403	809.612	389.137	-162.611	670.631	394.203	-260.930	812.000	55.943	-170.154	452.978	149.632	-258.944	811.027	762.913	-193.823	814.858	763.925	-97.613	807.197	761.902	-290.034	667.677	801.003	-162.546	662.002	797.816	-217.133	811.241	383.823	-112.418	656.697	398.687	-308.739	801.645	385.512	-213.395	690.592	383.833	-207.734	810.337	55.174	-136.704	444.300	157.091	-291.491	804.445	68.427	-195.286	454.369	159.715	-230.788	724.250	1150.719	-199.878	802.808	1098.320	-136.498	793.862	1096.927	-266.368	791.478	1086.703	-203.481	796.771	942.878	-201.492	797.826	460.190	-25.382	813.844	471.113	-330.374	820.672	530.915	-85.290	779.276	532.554	-254.500	841.620	452.247	-110.572	748.589	450.521	-246.351	805.204	156.014	-58.658	576.404	172.900	-312.953	803.710	213.886	-116.165	573.496	252.479	-284.426	906.045	38.197	-186.703	479.727	58.415	-255.675
	3	0.36667	759.098	692.511	-191.821	752.706	700.272	-127.352	748.104	699.235	-253.092	812.018	389.091	-162.294	680.653	393.053	-263.081	812.182	55.928	-170.206	459.480	152.046	-260.409	815.951	763.352	-193.145	819.476	764.146	-96.834	812.426	762.558	-289.456	672.361	801.131	-162.083	666.679	797.931	-216.654	813.512	383.739	-112.101	666.657	397.695	-310.857	804.361	385.769	-213.272	701.034	382.138	-209.985	810.465	55.133	-136.760	451.072	159.400	-293.050	804.673	68.485	-195.376	461.032	162.427	-232.414	728.754	1151.169	-199.186	807.560	1098.673	-135.894	798.406	1097.368	-265.764	796.043	1087.107	-202.865	801.483	943.275	-200.997	800.531	460.219	-25.001	822.673	472.512	-331.940	824.018	530.892	-84.863	787.240	532.632	-255.513	844.552	452.018	-110.269	757.915	450.141	-248.078	805.895	155.867	-58.615	583.537	172.896	-314.061	804.956	213.833	-116.078	581.931	252.488	-286.120	906.179	38.126	-186.679	485.038	60.292	-257.079
	4	0.37500	763.959	692.791	-191.530	757.436	700.366	-127.021	753.182	699.602	-252.776	814.363	389.033	-162.017	690.823	391.943	-265.140	812.343	55.917	-170.256	466.441	154.383	-261.728	820.716	763.739	-192.498	823.976	764.325	-96.095	817.455	763.154	-288.900	676.919	801.214	-161.664	671.241	797.990	-216.205	815.765	383.648	-111.825	676.827	396.700	-312.905	806.702	385.704	-212.943	711.462	380.622	-212.139	810.587	55.100	-136.812	458.265	161.636	-294.451	804.881	68.480	-195.476	468.084	165.038	-233.871	733.220	1151.551	-198.511	812.126	1099.003	-135.448	802.837	1097.652	-265.167	800.554	1087.439	-202.275	805.921	943.582	-200.413	803.267	460.247	-24.671	831.665	473.957	-333.262	827.584	530.752	-84.772	795.347	532.779	-256.416	847.357	451.830	-109.964	767.294	449.809	-249.667	806.601	155.728	-58.584	591.021	172.911	-315.129	806.282	213.690	-116.010	590.600	252.469	-287.776	906.320	38.057	-186.653	491.208	62.259	-258.702
	5	0.38333	768.633	693.026	-191.229	762.039	700.430	-126.676	758.063	699.916	-252.441	816.632	388.968	-161.773	701.112	390.901	-267.080	812.484	55.908	-170.296	473.894	156.597	-262.890	825.318	764.081	-191.883	828.368	764.475	-95.402	822.268	763.687	-288.364	681.351	801.253	-161.288	675.687	797.992	-215.791	817.985	383.550	-111.582	687.181	395.732	-314.857	809.373	385.519	-212.668	722.038	379.137	-214.119	810.701	55.075	-136.854	465.891	163.772	-295.673	805.057	68.425	-195.581	475.644	167.437	-235.140	737.683	1151.755	-197.829	816.670	1099.266	-134.956	807.125	1097.871	-264.606	804.999	1087.708	-201.705	810.349	943.823	-199.831	806.022	460.273	-24.382	840.804	475.465	-334.324	831.115	530.579	-84.788	803.488	532.941	-257.151	850.294	451.647	-109.714	776.790	449.520	-251.061	807.309	155.599	-58.557	598.858	172.969	-316.205	807.631	213.503	-116.002	599.482	252.543	-289.386	906.462	37.990	-186.623	498.325	64.303	-260.600
	6	0.39167	773.136	693.220	-190.916	766.531	700.471	-126.319	762.761	700.178	-252.091	818.815	388.898	-161.553	711.495	389.949	-268.883	812.606	55.903	-170.324	481.871	158.636	-263.892	829.769	764.388	-191.306	832.662	764.612	-94.759	826.875	764.163	-287.853	685.661	801.250	-160.952	680.022	797.936	-215.413	820.154	383.447	-111.365	697.690	394.818	-316.692	812.492	385.822	-212.737	732.817	377.733	-215.815	810.804	55.055	-136.883	473.966	165.776	-296.707	805.234	68.385	-195.683	483.775	169.542	-236.188	742.065	1151.903	-197.129	821.166	1099.450	-134.379	811.385	1098.085	-264.004	809.362	1087.926	-201.141	814.791	944.022	-199.279	808.774	460.298	-24.122	850.070	477.060	-335.128	834.089	530.537	-84.270	811.560	533.226	-257.722	853.315	451.434	-109.521	786.379	449.336	-252.197	808.002	155.482	-58.527	607.053	173.086	-317.335	808.869	213.366	-116.046	608.605	252.688	-290.911	906.603	37.927	-186.586	506.447	66.400	-262.816
	7	0.40000	777.513	693.383	-190.610	770.928	700.496	-125.963	767.306	700.397	-251.740	820.905	388.822	-161.349	721.952	389.110	-270.534	812.715	55.899	-170.335	490.396	160.451	-264.743	834.087	764.670	-190.772	836.868	764.746	-94.169	831.306	764.594	-287.376	689.862	801.207	-160.648	684.251	797.827	-215.071	822.255	383.341	-111.165	708.323	393.985	-318.393	815.163	386.146	-212.711	743.684	376.559	-217.327	810.895	55.041	-136.896	482.507	167.609	-297.557	805.430	68.404	-195.742	492.529	171.273	-236.990	746.352	1152.075	-196.477	825.506	1099.581	-133.811	815.646	1098.285	-263.471	813.638	1088.108	-200.583	819.098	944.187	-198.811	811.499	460.323	-23.881	859.431	478.759	-335.692	836.981	530.504	-83.777	819.580	533.748	-258.112	856.107	451.298	-109.314	796.006	449.375	-253.118	808.663	155.379	-58.490	615.620	173.266	-318.555	809.875	213.328	-116.046	617.961	252.951	-292.305	906.738	37.867	-186.541	515.600	68.519	-265.368
	8	0.40833	781.810	693.521	-190.329	775.243	700.509	-125.628	771.734	700.581	-251.408	822.901	388.741	-161.155	732.462	388.402	-272.028	812.818	55.895	-170.329	499.493	161.984	-265.459	838.296	764.937	-190.289	840.992	764.882	-93.635	835.599	764.993	-286.943	693.965	801.135	-160.370	688.383	797.674	-214.764	824.278	383.233	-110.975	719.049	393.254	-319.950	817.252	386.251	-212.447	754.538	375.606	-218.712	810.977	55.029	-136.891	491.533	169.223	-298.239	805.623	68.471	-195.722	501.907	172.578	-237.582	750.593	1152.143	-195.905	829.728	1099.710	-133.246	819.835	1098.442	-262.955	817.828	1088.263	-200.041	823.373	944.329	-198.309	814.175	460.350	-23.650	868.850	480.576	-336.047	839.971	530.461	-83.561	827.498	534.435	-258.310	858.639	451.239	-109.087	805.609	449.665	-253.855	809.279	155.294	-58.442	624.580	173.502	-319.888	810.742	213.357	-115.941	627.593	253.349	-293.481	906.865	37.812	-186.488	525.765	70.614	-268.239
	9	0.41667	786.070	693.647	-190.102	779.482	700.515	-125.332	776.072	700.743	-251.115	824.812	388.655	-160.965	743.012	387.837	-273.363	812.922	55.890	-170.307	509.180	163.181	-266.066	842.414	765.196	-189.858	845.036	765.020	-93.154	839.792	765.371	-286.563	697.981	801.042	-160.111	692.424	797.490	-214.492	826.219	383.126	-110.788	729.835	392.642	-321.355	819.240	386.409	-212.175	765.612	374.740	-220.048	811.053	55.018	-136.870	501.068	170.562	-298.776	805.825	68.547	-195.644	511.897	173.434	-238.032	754.725	1152.213	-195.369	833.861	1099.891	-132.664	823.909	1098.523	-262.352	821.930	1088.394	-199.533	827.531	944.459	-197.601	816.779	460.379	-23.424	878.281	482.517	-336.237	842.816	530.470	-83.275	835.240	535.256	-258.350	861.072	451.166	-108.849	815.278	450.204	-254.472	809.846	155.227	-58.380	633.957	173.778	-321.345	811.568	213.396	-115.785	637.577	253.778	-294.510	906.984	37.759	-186.427	536.891	72.628	-271.373
